<svg width="1551.625" height="289.687" viewBox="0 0 1551.625 289.687" xmlns="http://www.w3.org/2000/svg"><g id="svgGroup" stroke-linecap="round" fill-rule="evenodd" font-size="9pt" stroke="#ffffff" stroke-width="0.05mm" fill="none" style="stroke:#ffffff;stroke-width:0.05mm;fill:none">

<path d="M 284.025 49.632 L 237.225 88.032 Q 226.425 72.032 209.625 63.632 Q 192.825 55.232 169.625 55.232 Q 146.025 55.232 126.825 63.432 Q 107.625 71.632 93.825 86.632 Q 80.025 101.632 72.825 121.632 Q 65.625 141.632 65.625 164.032 Q 65.625 185.232 74.825 201.032 Q 84.025 216.832 101.625 225.632 Q 119.225 234.432 144.025 234.432 Q 165.625 234.432 184.425 226.632 Q 203.225 218.832 218.425 202.032 L 256.825 241.232 Q 234.825 266.832 204.625 278.232 Q 174.425 289.632 138.425 289.632 Q 95.625 289.632 64.625 274.232 Q 33.625 258.832 16.825 231.432 Q 0.025 204.032 0.025 168.032 Q 0.025 132.432 12.625 101.632 Q 25.225 70.832 48.225 48.232 Q 71.225 25.632 103.025 12.832 Q 134.825 0.032 174.025 0.032 Q 211.625 0.032 240.425 12.832 Q 269.225 25.632 284.025 49.632 Z" id="0" vector-effect="non-scaling-stroke"/>


<path d="M 349.625 284.832 L 284.425 284.832 L 340.425 4.832 L 454.425 4.832 Q 506.825 4.832 535.425 27.632 Q 564.025 50.432 564.025 91.632 Q 564.025 126.832 547.425 152.632 Q 530.825 178.432 500.225 192.432 Q 469.625 206.432 428.025 206.432 L 336.825 206.432 L 370.825 178.032 L 349.625 284.832 Z M 401.225 26.032 L 369.225 185.632 L 346.825 154.832 L 430.425 154.832 Q 462.825 154.832 480.625 140.232 Q 498.425 125.632 498.425 97.632 Q 498.425 77.232 484.625 67.432 Q 470.825 57.632 446.025 57.632 L 367.225 57.632 L 401.225 26.032 Z M 532.825 284.832 L 464.425 284.832 L 407.225 183.232 L 475.225 183.232 L 532.825 284.832 Z" id="1" vector-effect="non-scaling-stroke"/>

<path d="M 846.825 4.832 L 844.825 4.832 L 602.825 4.832 L 592.025 57.632 L 681.625 57.632 L 636.425 284.832 L 701.225 284.832 L 746.825 57.632 L 836.025 57.632 L 845.887 9.419" id="2" vector-effect="non-scaling-stroke"/>

<path d="M 845.887 9.419 L 909.625 284.832 L 973.625 284.832 L 1150.825 4.832 L 1083.625 4.832 L 926.025 253.232 L 968.025 253.232 L 911.625 4.832 L 846.825 4.832" id="3" vector-effect="non-scaling-stroke"/>

<path d="M 1156.425 284.832 L 1087.225 284.832 L 1268.025 4.832 L 1332.425 4.832 L 1401.225 284.832 L 1336.425 284.832 L 1282.025 36.832 L 1307.625 36.832 L 1156.425 284.832 Z M 1340.425 224.832 L 1162.025 224.832 L 1188.425 175.632 L 1332.825 175.632 L 1340.425 224.832 Z" id="4" vector-effect="non-scaling-stroke"/>

<path d="M 1495.625 284.832 L 1430.425 284.832 L 1486.425 4.832 L 1551.625 4.832 L 1495.625 284.832 Z" id="5" vector-effect="non-scaling-stroke"/>

</g></svg>